<?xml version="1.0" encoding="utf-8"?>
<!-- Generator: Adobe Illustrator 25.4.1, SVG Export Plug-In . SVG Version: 6.00 Build 0)  -->
<svg version="1.1" id="Capa_1" xmlns:serif="http://www.serif.com/"
	 xmlns="http://www.w3.org/2000/svg" xmlns:xlink="http://www.w3.org/1999/xlink" x="0px" y="0px" viewBox="0 0 3840 2160"
	 style="enable-background:new 0 0 3840 2160;" xml:space="preserve">
<style type="text/css">
	.st0{fill-rule:evenodd;clip-rule:evenodd;fill:#D7423A;}
</style>
<g>
	<g transform="matrix(1,0,0,0.952381,0,4.85714)">
		<path class="st0" d="M1852.5,274.9c0-59.8-36.9-112.7-91.2-130.8c-54.3-18.1-113.5,2.8-146.4,51.6l-341.7,508H941.2
			c-37.3,0-67.5,31.7-67.5,70.9v708.8c0,39.2,30.2,70.9,67.5,70.9h337.3l336,505.4c32.7,49.1,92,70.3,146.4,52.3
			c54.4-18,91.5-71,91.5-130.9V274.9z"/>
	</g>
	<g transform="matrix(1,0,0,1,-1,0)">
		<path class="st0" d="M2634.8,126.8c259.8,634.6,247.6,1282.4,0.1,1905.2c-13.7,34.6,3.2,73.9,37.8,87.6
			c34.6,13.8,73.9-3.2,87.6-37.8c260.6-655.9,273-1338-0.6-2006.2c-14.1-34.5-53.6-51-88.1-36.9
			C2637.2,52.9,2620.7,92.4,2634.8,126.8z"/>
	</g>
	<g transform="matrix(1,0,0,1,-11.9999,0)">
		<path class="st0" d="M2368,394.7c131.7,455.6,127,915.3-0.6,1365c-10.2,35.8,10.7,73.2,46.5,83.4c35.8,10.2,73.2-10.7,83.4-46.5
			c134.6-474.2,139.3-958.9,0.4-1439.3c-10.4-35.8-47.8-56.4-83.6-46.1C2378.3,321.4,2357.7,358.9,2368,394.7z"/>
	</g>
	<g transform="matrix(1,0,0,1,-22.9997,0)">
		<path class="st0" d="M2074,689c42.6,264,40.6,528.4-3.5,790.4c-6.2,36.8,18.6,71.6,55.4,77.8c36.7,6.2,71.6-18.6,77.8-55.3
			c46.5-276.6,48.6-555.6,3.6-834.3c-5.9-36.8-40.6-61.8-77.4-55.9C2093.1,617.5,2068,652.2,2074,689z"/>
	</g>
</g>
</svg>
