<?xml version="1.0" ?><!DOCTYPE svg  PUBLIC '-//W3C//DTD SVG 1.1//EN'  'http://www.w3.org/Graphics/SVG/1.1/DTD/svg11.dtd'><svg xmlns="http://www.w3.org/2000/svg" xmlns:xlink="http://www.w3.org/1999/xlink" xmlns:serif="http://www.serif.com/" width="100%" height="100%" viewBox="0 0 64 64" version="1.1" xml:space="preserve" style="fill-rule:evenodd;clip-rule:evenodd;stroke-linejoin:round;stroke-miterlimit:2;"><g><g transform="matrix(1,0,0,0.952381,0,4.85714)"><path d="M30,3.195C30,1.423 28.907,-0.145 27.299,-0.681C25.69,-1.217 23.936,-0.598 22.962,0.849L12.839,15.9L3,15.9C1.895,15.9 1,16.84 1,18L1,39C1,40.16 1.895,41.1 3,41.1L12.993,41.1L22.95,56.075C23.919,57.531 25.675,58.159 27.289,57.626C28.902,57.093 30,55.522 30,53.746L30,3.195Z"/></g><g transform="matrix(1,0,0,1,-1,0)"><path d="M54.149,3.758C61.848,22.56 61.485,41.754 54.152,60.208C53.745,61.234 54.247,62.398 55.273,62.805C56.298,63.213 57.462,62.711 57.87,61.685C65.591,42.252 65.958,22.041 57.851,2.242C57.433,1.221 56.264,0.731 55.242,1.149C54.221,1.568 53.731,2.737 54.149,3.758Z"/></g><g transform="matrix(1,0,0,1,-11.9999,0)"><path d="M56.918,11.694C60.821,25.194 60.682,38.813 56.9,52.138C56.598,53.2 57.216,54.307 58.278,54.608C59.34,54.91 60.446,54.292 60.748,53.23C64.736,39.18 64.876,24.818 60.761,10.583C60.454,9.523 59.344,8.911 58.284,9.217C57.224,9.524 56.612,10.634 56.918,11.694Z"/></g><g transform="matrix(1,0,0,1,-22.9997,0)"><path d="M58.88,20.414C60.142,28.237 60.082,36.07 58.776,43.833C58.593,44.922 59.328,45.954 60.417,46.137C61.505,46.321 62.538,45.585 62.721,44.497C64.099,36.302 64.161,28.034 62.829,19.777C62.653,18.687 61.625,17.945 60.535,18.121C59.446,18.297 58.704,19.325 58.88,20.414Z"/></g></g></svg>